<svg xmlns="http://www.w3.org/2000/svg" width="83.064" height="77.871"><g data-name="Gruppe 1330"><path data-name="Linie 210" fill="none" stroke="#9f9f9f" stroke-linecap="round" stroke-width="5" d="M21.598 75.371h39.939"/><path data-name="Linie 211" fill="none" stroke="#9f9f9f" stroke-linecap="round" stroke-width="5" d="M41.568 17.051v57.69"/><path data-name="Pfad 1620" d="M10.504 27.665L70.413 3.258" fill="none" stroke="#9f9f9f" stroke-linecap="round" stroke-width="5"/><path d="M14.616 29.486L2.088 52.454h25.056zm14.616 22.968a6.653 6.653 0 01-1.517 4.274 10.5 10.5 0 01-3.833 2.969 23.242 23.242 0 01-4.714 1.615 20.8 20.8 0 01-4.551.538 20.8 20.8 0 01-4.551-.538 23.243 23.243 0 01-4.716-1.613 10.5 10.5 0 01-3.833-2.969A6.653 6.653 0 010 52.454a12.439 12.439 0 011.142-2.643q1.142-2.284 3-5.693t3.491-6.378q1.631-2.969 3.328-6t1.827-3.262a1.944 1.944 0 011.827-1.077 1.944 1.944 0 011.827 1.077q.13.228 1.827 3.262t3.328 6q1.631 2.969 3.491 6.378t3 5.693a12.44 12.44 0 011.144 2.643z" fill="#9f9f9f"/><path data-name="iconfinder_balance-scale_1608567" d="M68.448 6.247L55.92 29.215h25.056zm14.616 22.968a6.653 6.653 0 01-1.517 4.274 10.5 10.5 0 01-3.833 2.969A23.242 23.242 0 0173 38.073a20.8 20.8 0 01-4.551.538 20.8 20.8 0 01-4.551-.538 23.243 23.243 0 01-4.716-1.613 10.5 10.5 0 01-3.833-2.969 6.653 6.653 0 01-1.517-4.276 12.439 12.439 0 011.142-2.643q1.142-2.284 3-5.693t3.491-6.378q1.631-2.969 3.328-6t1.827-3.262a1.944 1.944 0 011.827-1.077 1.944 1.944 0 011.827 1.077q.13.228 1.827 3.262t3.328 6q1.631 2.969 3.491 6.378t3 5.693a12.44 12.44 0 011.144 2.643z" fill="#9f9f9f"/><g data-name="Ellipse 512" transform="translate(35.445 9.704)" fill="#9f9f9f" stroke="#9f9f9f"><circle cx="6" cy="6" r="6" stroke="none"/><circle cx="6" cy="6" r="5.5" fill="none"/></g></g></svg>